<svg width="789" height="675" viewBox="0 0 789 675" fill="none" xmlns="http://www.w3.org/2000/svg">
<path fill-rule="evenodd" clip-rule="evenodd" d="M446.429 87.3063C386.908 95.4396 327.145 131.743 289.045 182.909C274.984 201.792 275.363 202.417 319.575 233.167C365.707 265.253 364.883 265.013 376.918 249.834C411.316 206.452 433.885 192.912 471.808 192.912C570.808 192.912 570.138 319.438 471.118 322.663C449.968 323.351 448.567 323.6 447.318 326.885C446.1 330.087 446.744 412.601 448.019 416.689C448.366 417.8 456.759 418.838 470.271 419.441C548.582 422.931 584.399 492.425 534.249 543.573C493.441 585.191 426.002 574.12 382.727 518.701C370.991 503.671 367.034 501.543 359.516 506.221C349.411 512.505 290.379 553.162 285.968 556.871C255.557 582.462 367.574 662.983 447.242 672.801C641.43 696.731 758.116 464.217 597.78 372.834C585.297 365.718 585.297 365.718 594.739 360.415C741.602 277.947 624.836 62.9275 446.429 87.3063ZM179.71 89.4839C177.921 90.6468 164.016 99.3054 148.81 108.727C27.1891 184.081 16.2633 191.561 16.2633 199.458C16.2633 204.251 21.2269 213.416 37.8188 239.263C63.8044 279.741 61.6706 279.204 100.02 254.897C117.909 243.558 117.909 243.558 118.722 265.463C119.355 282.52 120.076 287.708 121.975 288.905C127.376 292.309 230.632 290.853 232.509 287.347C235.496 281.762 234.761 102.776 231.725 96.9049C226.96 87.6901 190.483 82.4858 179.71 89.4839ZM6.50534 320.884C0.178897 323.174 0 325.026 0 388.266C0 449.637 1.58977e-05 449.637 4.28541 453.007C11.7178 458.855 351.238 458.202 357.111 452.331C362.542 446.899 362.743 328.892 357.328 323.483C354.471 320.627 14.1784 318.106 6.50534 320.884ZM119.807 486.737C116.631 489.912 118.7 655.548 121.982 660.931C126.88 668.963 129.905 669.428 177.3 669.428C225.119 669.428 227.594 669.018 231.675 660.418C234.252 654.986 235.677 494.667 233.205 488.225C232.176 485.544 122.44 484.103 119.807 486.737Z" fill="#000B0C"/>
<path d="M656.54 96.9585C637.949 58.9201 664.781 8.22077 707.312 1.02261C767.012 -9.07855 810.947 57.785 777.305 107.539C745.97 153.877 681.605 148.238 656.54 96.9585Z" fill="#F8333C"/>
<path fill-rule="evenodd" clip-rule="evenodd" d="M446.429 87.3063C386.908 95.4396 327.145 131.743 289.045 182.909C274.984 201.792 275.363 202.417 319.575 233.167C365.707 265.253 364.883 265.013 376.918 249.834C411.316 206.452 433.885 192.912 471.808 192.912C570.808 192.912 570.138 319.438 471.118 322.663C449.968 323.351 448.567 323.6 447.318 326.885C446.1 330.087 446.744 412.601 448.019 416.689C448.366 417.8 456.759 418.838 470.271 419.441C548.582 422.931 584.399 492.425 534.249 543.573C493.441 585.191 426.002 574.12 382.727 518.701C370.991 503.671 367.034 501.543 359.516 506.221C349.411 512.505 290.379 553.162 285.968 556.871C255.557 582.462 367.574 662.983 447.242 672.801C641.43 696.731 758.116 464.217 597.78 372.834C585.297 365.718 585.297 365.718 594.739 360.415C741.602 277.947 624.836 62.9275 446.429 87.3063ZM179.71 89.4839C177.921 90.6468 164.016 99.3054 148.81 108.727C27.1891 184.081 16.2633 191.561 16.2633 199.458C16.2633 204.251 21.2269 213.416 37.8188 239.263C63.8044 279.741 61.6706 279.204 100.02 254.897C117.909 243.558 117.909 243.558 118.722 265.463C119.355 282.52 120.076 287.708 121.975 288.905C127.376 292.309 230.632 290.853 232.509 287.347C235.496 281.762 234.761 102.776 231.725 96.9049C226.96 87.6901 190.483 82.4858 179.71 89.4839ZM6.50534 320.884C0.178897 323.174 0 325.026 0 388.266C0 449.637 1.58977e-05 449.637 4.28541 453.007C11.7178 458.855 351.238 458.202 357.111 452.331C362.542 446.899 362.743 328.892 357.328 323.483C354.471 320.627 14.1784 318.106 6.50534 320.884ZM119.807 486.737C116.631 489.912 118.7 655.548 121.982 660.931C126.88 668.963 129.905 669.428 177.3 669.428C225.119 669.428 227.594 669.018 231.675 660.418C234.252 654.986 235.677 494.667 233.205 488.225C232.176 485.544 122.44 484.103 119.807 486.737Z" fill="#000B0C"/>
<path d="M656.54 96.9585C637.949 58.9201 664.781 8.22077 707.312 1.02261C767.012 -9.07855 810.947 57.785 777.305 107.539C745.97 153.877 681.605 148.238 656.54 96.9585Z" fill="#F8333C"/>
<path d="M75.426 413H63.7687L61.5321 410.086C57.2623 412.526 52.6535 413.61 48.3837 413.61C38.8274 413.61 32.5921 409.001 33.6765 401.139C34.7609 393.684 39.6407 389.55 44.7916 386.5C43.5717 383.518 42.8939 380.265 43.3683 376.74C44.385 369.624 49.1292 364.744 57.4656 364.744C67.0219 364.744 68.9196 370.369 68.2418 375.453C67.4285 381.485 62.2098 385.144 57.0589 388.262C57.5334 388.872 57.94 389.55 58.4144 390.16L63.7687 397.344C65.0564 394.904 66.073 391.922 66.5475 388.33H75.6293C74.5449 394.972 72.0373 400.123 68.784 404.054L75.426 413ZM53.4668 381.756C56.5167 379.993 58.8889 377.96 59.2955 374.978C59.7022 371.996 58.8889 370.302 56.7878 370.302C54.3479 370.302 53.128 372.47 52.6535 375.724C52.3824 377.757 52.7213 379.79 53.4668 381.756ZM57.2623 404.528L50.4847 395.582C49.9425 394.836 49.4003 394.158 48.8581 393.413C46.3505 395.311 44.4527 397.412 44.0461 400.258C43.5039 404.257 46.5538 406.561 50.4847 406.561C52.5858 406.561 55.0257 405.884 57.2623 404.528ZM98.4405 396.598L102.778 365.557H113.148L108.81 396.598C107.997 402.63 109.827 405.477 113.893 405.477C117.892 405.477 120.264 402.63 121.077 396.598L125.415 365.557H135.785L131.447 396.598C129.753 408.595 123.043 413.813 112.673 413.813C102.236 413.813 96.7461 408.662 98.4405 396.598ZM136.709 413L143.351 365.557H155.753C168.631 365.557 173.782 372.199 172.358 381.959C170.935 392.464 162.87 398.564 151.687 398.564H149.111L147.078 413H136.709ZM150.196 390.702H152.636C157.583 390.702 161.311 387.042 161.989 381.959C162.802 376.334 160.023 373.826 155.482 373.826H152.568L150.196 390.702ZM186.812 413L193.454 365.557H203.823L198.334 404.664H215.752L214.6 413H186.812ZM216.392 413L239.368 365.286H242.621L253.126 413H242.282L240.927 405.816H230.083L226.897 413H216.392ZM233.336 398.496H239.503L237.809 388.465H237.673L233.336 398.496ZM257.764 413L264.406 365.557H276.741C284.603 365.557 292.126 367.387 290.771 376.876C289.957 382.433 286.568 385.551 282.434 386.703L282.366 386.839C288.941 387.381 293.143 391.515 292.058 398.903C290.499 409.95 281.621 413 271.184 413H257.764ZM271.997 385.551H273.149C277.554 385.551 280.333 382.501 280.875 378.977C281.35 375.385 279.317 373.284 275.453 373.284H273.691L271.997 385.551ZM269.218 405.274H272.2C277.554 405.274 280.943 402.901 281.553 398.361C282.231 393.887 279.384 391.719 274.911 391.719H271.116L269.218 405.274ZM297.74 377.418C298.824 369.488 306.279 364.812 314.345 364.812C318.005 364.812 321.935 365.557 324.782 366.913L323.562 375.52C321.868 374.3 317.53 372.742 313.735 372.742C310.617 372.742 307.838 373.826 307.432 377.011C306.957 380.197 310.075 382.366 313.735 384.806C318.411 387.855 324.172 391.176 323.02 399.716C321.8 408.188 314.548 413.746 305.059 413.746C300.451 413.746 296.384 412.864 293.334 411.238L294.487 402.901C296.588 404.325 301.264 405.951 305.059 405.951C308.99 405.951 312.108 404.325 312.65 400.462C313.125 396.937 309.872 394.362 306.144 391.854C301.603 388.872 296.655 385.212 297.74 377.418Z" fill="#F9F2E2"/>
<path d="M75.426 413H63.7687L61.5321 410.086C57.2623 412.526 52.6535 413.61 48.3837 413.61C38.8274 413.61 32.5921 409.001 33.6765 401.139C34.7609 393.684 39.6407 389.55 44.7916 386.5C43.5717 383.518 42.8939 380.265 43.3683 376.74C44.385 369.624 49.1292 364.744 57.4656 364.744C67.0219 364.744 68.9196 370.369 68.2418 375.453C67.4285 381.485 62.2098 385.144 57.0589 388.262C57.5334 388.872 57.94 389.55 58.4144 390.16L63.7687 397.344C65.0564 394.904 66.073 391.922 66.5475 388.33H75.6293C74.5449 394.972 72.0373 400.123 68.784 404.054L75.426 413ZM53.4668 381.756C56.5167 379.993 58.8889 377.96 59.2955 374.978C59.7022 371.996 58.8889 370.302 56.7878 370.302C54.3479 370.302 53.128 372.47 52.6535 375.724C52.3824 377.757 52.7213 379.79 53.4668 381.756ZM57.2623 404.528L50.4847 395.582C49.9425 394.836 49.4003 394.158 48.8581 393.413C46.3505 395.311 44.4527 397.412 44.0461 400.258C43.5039 404.257 46.5538 406.561 50.4847 406.561C52.5858 406.561 55.0257 405.884 57.2623 404.528ZM98.4405 396.598L102.778 365.557H113.148L108.81 396.598C107.997 402.63 109.827 405.477 113.893 405.477C117.892 405.477 120.264 402.63 121.077 396.598L125.415 365.557H135.785L131.447 396.598C129.753 408.595 123.043 413.813 112.673 413.813C102.236 413.813 96.7461 408.662 98.4405 396.598ZM136.709 413L143.351 365.557H155.753C168.631 365.557 173.782 372.199 172.358 381.959C170.935 392.464 162.87 398.564 151.687 398.564H149.111L147.078 413H136.709ZM150.196 390.702H152.636C157.583 390.702 161.311 387.042 161.989 381.959C162.802 376.334 160.023 373.826 155.482 373.826H152.568L150.196 390.702ZM186.812 413L193.454 365.557H203.823L198.334 404.664H215.752L214.6 413H186.812ZM216.392 413L239.368 365.286H242.621L253.126 413H242.282L240.927 405.816H230.083L226.897 413H216.392ZM233.336 398.496H239.503L237.809 388.465H237.673L233.336 398.496ZM257.764 413L264.406 365.557H276.741C284.603 365.557 292.126 367.387 290.771 376.876C289.957 382.433 286.568 385.551 282.434 386.703L282.366 386.839C288.941 387.381 293.143 391.515 292.058 398.903C290.499 409.95 281.621 413 271.184 413H257.764ZM271.997 385.551H273.149C277.554 385.551 280.333 382.501 280.875 378.977C281.35 375.385 279.317 373.284 275.453 373.284H273.691L271.997 385.551ZM269.218 405.274H272.2C277.554 405.274 280.943 402.901 281.553 398.361C282.231 393.887 279.384 391.719 274.911 391.719H271.116L269.218 405.274ZM297.74 377.418C298.824 369.488 306.279 364.812 314.345 364.812C318.005 364.812 321.935 365.557 324.782 366.913L323.562 375.52C321.868 374.3 317.53 372.742 313.735 372.742C310.617 372.742 307.838 373.826 307.432 377.011C306.957 380.197 310.075 382.366 313.735 384.806C318.411 387.855 324.172 391.176 323.02 399.716C321.8 408.188 314.548 413.746 305.059 413.746C300.451 413.746 296.384 412.864 293.334 411.238L294.487 402.901C296.588 404.325 301.264 405.951 305.059 405.951C308.99 405.951 312.108 404.325 312.65 400.462C313.125 396.937 309.872 394.362 306.144 391.854C301.603 388.872 296.655 385.212 297.74 377.418Z" fill="#F9F2E2"/>
</svg>
